<?xml version="1.0" encoding="utf-8"?>
<!-- Generator: Adobe Illustrator 25.2.1, SVG Export Plug-In . SVG Version: 6.00 Build 0)  -->
<svg version="1.1" id="Livello_1" xmlns="http://www.w3.org/2000/svg" xmlns:xlink="http://www.w3.org/1999/xlink" x="0px" y="0px"
	 viewBox="0 0 141.7 141.7" style="enable-background:new 0 0 141.7 141.7;" xml:space="preserve">
<style type="text/css">
	.st0{fill:#5BB234;}
</style>
<g id="Livello_1_1_">
</g>
<g id="Livello_1_2_">
</g>
<path class="st0" d="M117,100.6c0,10.5-8.5,18.9-18.9,18.9s-18.9-8.5-18.9-18.9c0-1.5,0.2-3,0.6-4.5L51.4,82
	c-3.5,3.3-8.1,5.1-12.8,5.1c-10.5,0-18.9-8.5-18.9-18.9s8.5-18.9,18.9-18.9c4.8,0,9.4,1.8,12.8,5.1l28.4-14.1
	c-0.4-1.5-0.6-3-0.6-4.5c0-10.5,8.5-18.9,18.9-18.9S117,25.2,117,35.7s-8.5,18.9-18.9,18.9c-4.8,0-9.4-1.8-12.8-5.1L56.9,63.7
	c0.8,2.9,0.8,6,0,9l28.4,14.1c3.5-3.3,8.1-5.1,12.8-5.1C108.6,81.7,117,90.2,117,100.6z"/>
</svg>
