<?xml version="1.0" encoding="utf-8"?>
<!-- Generator: Adobe Illustrator 24.2.1, SVG Export Plug-In . SVG Version: 6.00 Build 0)  -->
<svg version="1.1" id="Layer_1" xmlns="http://www.w3.org/2000/svg" xmlns:xlink="http://www.w3.org/1999/xlink" x="0px" y="0px"
	 viewBox="0 0 512 512" style="enable-background:new 0 0 512 512;" xml:space="preserve">
<style type="text/css">
	.st0{fill:#00B900;}
	.st1{fill:#FFFFFF;}
</style>
<g id="FULL_COLOR_ICON_2_">
	<path class="st0" d="M475.5,501.5h-439c-14.4,0-26-11.6-26-26v-439c0-14.4,11.6-26,26-26h439c14.4,0,26,11.6,26,26v439
		C501.5,489.9,489.9,501.5,475.5,501.5z"/>
	<g id="TYPE_A_1_">
		<g>
			<path class="st1" d="M434,234.4c0-80-80.2-145.1-178.8-145.1c-98.6,0-178.8,65.1-178.8,145.1c0,71.7,63.6,131.8,149.5,143.1
				c5.8,1.3,13.7,3.8,15.7,8.8c1.8,4.5,1.2,11.6,0.6,16.2c0,0-2.1,12.6-2.6,15.3c-0.8,4.5-3.6,17.7,15.5,9.6
				c19.1-8,103-60.6,140.5-103.8h0C421.6,295.3,434,266.4,434,234.4"/>
			<g>
				<path class="st0" d="M218.9,195.8h-12.5c-1.9,0-3.5,1.6-3.5,3.5v77.9c0,1.9,1.6,3.5,3.5,3.5h12.5c1.9,0,3.5-1.6,3.5-3.5v-77.9
					C222.4,197.3,220.8,195.8,218.9,195.8"/>
				<path class="st0" d="M305.2,195.8h-12.5c-1.9,0-3.5,1.6-3.5,3.5v46.3l-35.7-48.2c-0.1-0.1-0.2-0.2-0.3-0.4c0,0,0,0,0,0
					c-0.1-0.1-0.1-0.1-0.2-0.2c0,0,0,0-0.1-0.1c-0.1-0.1-0.1-0.1-0.2-0.2c0,0-0.1,0-0.1-0.1c-0.1,0-0.1-0.1-0.2-0.1
					c0,0-0.1,0-0.1-0.1c-0.1,0-0.1-0.1-0.2-0.1c0,0-0.1,0-0.1-0.1c-0.1,0-0.1-0.1-0.2-0.1c0,0-0.1,0-0.1,0c-0.1,0-0.1,0-0.2-0.1
					c0,0-0.1,0-0.1,0c-0.1,0-0.1,0-0.2,0c0,0-0.1,0-0.1,0c-0.1,0-0.1,0-0.2,0c-0.1,0-0.1,0-0.2,0c0,0-0.1,0-0.1,0H238
					c-1.9,0-3.5,1.6-3.5,3.5v77.9c0,1.9,1.6,3.5,3.5,3.5h12.5c1.9,0,3.5-1.6,3.5-3.5v-46.3l35.7,48.3c0.2,0.3,0.6,0.6,0.9,0.9
					c0,0,0,0,0,0c0.1,0,0.1,0.1,0.2,0.1c0,0,0.1,0,0.1,0.1c0.1,0,0.1,0.1,0.2,0.1c0.1,0,0.1,0,0.2,0.1c0,0,0.1,0,0.1,0
					c0.1,0,0.2,0.1,0.2,0.1c0,0,0,0,0.1,0c0.3,0.1,0.6,0.1,0.9,0.1h12.5c1.9,0,3.5-1.6,3.5-3.5v-77.9
					C308.7,197.3,307.1,195.8,305.2,195.8"/>
				<path class="st0" d="M188.7,261.1h-34.1v-61.9c0-1.9-1.6-3.5-3.5-3.5h-12.5c-1.9,0-3.5,1.6-3.5,3.5v77.9v0c0,0.9,0.4,1.8,1,2.4
					c0,0,0,0,0,0.1c0,0,0,0,0.1,0c0.6,0.6,1.5,1,2.4,1h0h50.1c1.9,0,3.5-1.6,3.5-3.5v-12.5C192.1,262.7,190.6,261.1,188.7,261.1"/>
				<path class="st0" d="M374.4,215.3c1.9,0,3.5-1.6,3.5-3.5v-12.5c0-1.9-1.6-3.5-3.5-3.5h-50.1h0c-0.9,0-1.8,0.4-2.4,1c0,0,0,0,0,0
					c0,0,0,0-0.1,0.1c-0.6,0.6-1,1.5-1,2.4v0v77.9v0c0,0.9,0.4,1.8,1,2.4c0,0,0,0,0,0.1c0,0,0,0,0.1,0c0.6,0.6,1.5,1,2.4,1h0h50.1
					c1.9,0,3.5-1.6,3.5-3.5v-12.5c0-1.9-1.6-3.5-3.5-3.5h-34.1v-13.2h34.1c1.9,0,3.5-1.6,3.5-3.5v-12.5c0-1.9-1.6-3.5-3.5-3.5h-34.1
					v-13.2H374.4z"/>
			</g>
		</g>
	</g>
</g>
</svg>
