<?xml version="1.0" encoding="utf-8"?>
<!-- Generator: Adobe Illustrator 25.2.1, SVG Export Plug-In . SVG Version: 6.00 Build 0)  -->
<svg version="1.1" id="Livello_1" xmlns="http://www.w3.org/2000/svg" xmlns:xlink="http://www.w3.org/1999/xlink" x="0px" y="0px"
	 viewBox="0 0 141.7 141.7" style="enable-background:new 0 0 141.7 141.7;" xml:space="preserve">
<style type="text/css">
	.st0{fill:#D6D6D6;}
</style>
<g id="Livello_82">
	<path class="st0" d="M130.6,52.5c0-17.7-14.4-32.1-32.2-32.1c-11.7,0-21.9,6.2-27.6,15.6C65.2,26.7,55,20.4,43.3,20.4
		c-17.8,0-32.2,14.4-32.2,32.1c0,9.2,3.9,17.5,10.1,23.3l0,0l46,43.9c0.9,1,2.1,1.6,3.5,1.6c1.3,0,2.5-0.6,3.3-1.4l46.2-44.1l0,0
		C126.6,70,130.6,61.7,130.6,52.5"/>
</g>
<g id="Livello_1_1_">
</g>
</svg>
