<?xml version="1.0" encoding="utf-8"?>
<!-- Generator: Adobe Illustrator 24.2.1, SVG Export Plug-In . SVG Version: 6.00 Build 0)  -->
<svg version="1.1" id="Layer_1" xmlns="http://www.w3.org/2000/svg" xmlns:xlink="http://www.w3.org/1999/xlink" x="0px" y="0px"
	 viewBox="0 0 30 30" style="enable-background:new 0 0 30 30;" xml:space="preserve">
<style type="text/css">
	.st0{opacity:0.65;}
	.st1{fill:#FFFFFF;}
</style>
<path class="st0" d="M15,0C6.7,0,0,6.7,0,15s6.7,15,15,15s15-6.7,15-15S23.3,0,15,0z M21.6,15.5L12.1,21c-0.5,0.3-0.9,0-0.9-0.5v-11
	c0-0.6,0.4-0.8,0.9-0.5l9.5,5.5C22.1,14.8,22.1,15.2,21.6,15.5z"/>
<path class="st1" d="M0.2-4.2"/>
<path class="st1" d="M10.9,9.5v11c0,0.7,0.7,1.1,1.3,0.8l9.8-5.5c0.6-0.3,0.6-1.2,0-1.6l-9.8-5.5C11.6,8.4,10.9,8.8,10.9,9.5z"/>
</svg>
