<?xml version="1.0" encoding="utf-8"?>
<!-- Generator: Adobe Illustrator 25.2.1, SVG Export Plug-In . SVG Version: 6.00 Build 0)  -->
<svg version="1.1" id="Livello_1" xmlns="http://www.w3.org/2000/svg" xmlns:xlink="http://www.w3.org/1999/xlink" x="0px" y="0px"
	 viewBox="0 0 141.7 141.7" style="enable-background:new 0 0 141.7 141.7;" xml:space="preserve">
<style type="text/css">
	.st0{fill:#20A5EF;}
</style>
<g id="Livello_1_1_">
</g>
<g id="Livello_1_2_">
</g>
<g id="icons">
	<path id="photo" class="st0" d="M105.4,41.9h-2c-2,0-3.5-1-4.4-3L93,27.6c-1.5-3.5-4.9-5.4-8.9-5.4H57c-3.5,0-6.9,2-8.9,5.4
		l-5.4,11.3c-1,2-2.5,3-4.4,3h-2c-10.8,0-19.7,8.9-19.7,19.7v29.6c0,10.8,8.9,19.7,19.7,19.7h69c10.8,0,19.7-8.9,19.7-19.7V61.6
		C125.1,50.8,116.2,41.9,105.4,41.9z M70.8,91.2c-10.8,0-19.7-8.9-19.7-19.7S60,51.8,70.8,51.8s19.7,8.9,19.7,19.7
		S81.7,91.2,70.8,91.2z"/>
</g>
</svg>
