<?xml version="1.0" encoding="utf-8"?>
<!-- Generator: Adobe Illustrator 26.3.1, SVG Export Plug-In . SVG Version: 6.00 Build 0)  -->
<svg version="1.1" id="圖層_1" xmlns="http://www.w3.org/2000/svg" xmlns:xlink="http://www.w3.org/1999/xlink" x="0px" y="0px"
	 viewBox="0 0 320 244" style="enable-background:new 0 0 320 244;" xml:space="preserve">
<style type="text/css">
	.st0{fill:#FFFFFF;}
</style>
<path class="st0" d="M0,166.6c4.2,0.8,8.6,1,12.7,2.6c7.8,3.1,14,7.9,18.3,15.1c1,1.7,2.1,2.4,4.1,2.4c19.9-0.1,39.9-0.1,59.8,0
	c2,0,3.1-0.4,4.1-2.3c2.7-5.2,5.6-10.3,8.6-15.4c0.8-1.4,1-2-0.7-3c-4.9-2.7-6.2-7-3.8-12c1.4-2.9,2.7-5.8,4.3-8.5
	c1.2-2,0.6-2.7-1.2-3.6c-17-8.4-33.9-16.9-50.9-25.3c-3.1-1.6-6.3-3.1-9.4-4.7c-6.2-3.1-7.7-7.5-4.6-13.7
	c14.3-28.7,28.6-57.3,42.9-86c0.6-1.2,1.2-2.4,1.8-3.6c2.9-5.5,7.3-7,12.9-4.3c12.6,6.2,25.1,12.5,37.6,18.7
	c57.9,28.9,115.7,57.7,173.6,86.6c0.7,0.4,1.5,0.7,2.2,1.1c6.6,3.6,7.1,11,1,15.3c-6.9,4.7-13.9,9.3-20.9,13.8
	c-2.6,1.7-4.4,3.7-5.8,6.5c-7,14.2-14.1,28.4-21.2,42.6c-3.4,6.8-7.5,8.2-14.4,4.8c-6.5-3.2-12.9-6.4-19.3-9.7
	c-1.8-0.9-3.1-0.8-4.7,0.4c-3.2,2.4-6.7,4.5-10,6.8c-3.5,2.5-6.9,2.6-10.7,0.7c-14.7-7.4-29.5-14.7-44.2-22.2
	c-2.2-1.1-3.1-0.8-4,1.4c-1.2,2.8-2.7,5.6-4.1,8.3c-2.6,5-6.9,6.6-11.9,4.1c-2.1-1.1-3.1-0.8-4.2,1.3c-4.6,8.5-9.5,16.9-14.1,25.4
	c-4,7.4-10,10.8-18.3,10.7c-23.6-0.1-47.1,0-70.7-0.1c-1.6,0-2.8,0.1-3.9,1.8c-7.3,11.2-17.6,16.8-30.9,17.2C0,215.4,0,191,0,166.6z
	"/>
</svg>
