<?xml version="1.0" encoding="utf-8"?>
<!-- Generator: Adobe Illustrator 25.2.1, SVG Export Plug-In . SVG Version: 6.00 Build 0)  -->
<svg version="1.1" id="Livello_1" xmlns="http://www.w3.org/2000/svg" xmlns:xlink="http://www.w3.org/1999/xlink" x="0px" y="0px"
	 viewBox="0 0 141.7 141.7" style="enable-background:new 0 0 141.7 141.7;" xml:space="preserve">
<style type="text/css">
	.st0{fill:#D6D6D6;}
</style>
<g id="Livello_1_1_">
</g>
<g>
	<path class="st0" d="M86.1,48.9c-6.7-20.5-43.5-11.4-46.8,15.3C37.5,78.5,54.6,89,64.8,102.3c18.5,24.1,31.9,37.8,46.4,25.1
		c13.2-11.5-4.2-28.4-13.4-39.9C90.6,78.4,90,61,86.1,48.9z"/>
	<ellipse transform="matrix(0.9479 -0.3185 0.3185 0.9479 -2.0881 22.6371)" class="st0" cx="68.2" cy="17.7" rx="8.2" ry="11.1"/>
	<ellipse transform="matrix(0.9187 -0.3949 0.3949 0.9187 -5.4986 22.3493)" class="st0" cx="51.6" cy="24.5" rx="6.1" ry="8.2"/>
	<ellipse transform="matrix(0.7906 -0.6123 0.6123 0.7906 -12.0343 31.279)" class="st0" cx="39.7" cy="33.2" rx="5.2" ry="7"/>
	<ellipse transform="matrix(0.6067 -0.7949 0.7949 0.6067 -22.4394 42.9185)" class="st0" cx="32.2" cy="44.1" rx="4.6" ry="6.2"/>
	<ellipse transform="matrix(0.3795 -0.9252 0.9252 0.3795 -34.8303 60.0012)" class="st0" cx="27.3" cy="56" rx="3.9" ry="5.2"/>
</g>
</svg>
