<?xml version="1.0" encoding="utf-8"?>
<!-- Generator: Adobe Illustrator 24.2.1, SVG Export Plug-In . SVG Version: 6.00 Build 0)  -->
<svg version="1.1" id="圖層_1" xmlns="http://www.w3.org/2000/svg" xmlns:xlink="http://www.w3.org/1999/xlink" x="0px" y="0px"
	 viewBox="0 0 30 32" style="enable-background:new 0 0 30 32;" xml:space="preserve">
<style type="text/css">
	.st0{fill:url(#SVGID_1_);}
	.st1{fill:#FFFFFF;}
</style>
<g>
	<linearGradient id="SVGID_1_" gradientUnits="userSpaceOnUse" x1="3.5428" y1="14.9945" x2="222.7177" y2="29.4142">
		<stop  offset="0" style="stop-color:#976091"/>
		<stop  offset="1" style="stop-color:#EE8DAB"/>
	</linearGradient>
	<path class="st0" d="M19.1,31.5l-0.2-0.7c0-1.6-0.9-4.6-0.9-4.7c-1.1-5.8-6.9-9.9-7.2-10.1c-2.3-2-2-6.3-2-6.3l0-0.4H8.5
		c-3.1,0-5-1.2-5-1.2C0.7,7,1.1,5.4,1.1,5.3L1.2,5L1,4.9l4.8-2.8l7.9-1.8l4.2,0l4,1.8L22,2.1c0,0,2.4-0.9,4.3-0.9
		c1,0,1.7,0.3,2.1,0.7c0.1,0.4,0.7,3.4-3.1,5.3l-0.2,0.1l0,0.2c0,0.3-0.3,7.3,3.7,8.6c0.3,0.6,1.6,3.2,0.8,4.7
		c-0.3,0.6-0.8,0.9-1.6,1.1c-0.2,0-0.6-0.1-1.3-0.1c-1.2,0-2.9,0.3-4.1,1.7l-0.1,0.2l0.1,0.2c0,0,1.5,4.2,1.2,7.3l-3,0.5L19.1,31.5z
		"/>
	<path class="st1" d="M17.8,0.7l3.8,1.7l0.3,0.1l0.3-0.1c0,0,2.3-0.9,4.2-0.9c0.8,0,1.4,0.2,1.7,0.5c0.1,0.6,0.4,3.1-2.9,4.8
		l-0.4,0.2l0,0.4c0,0.3-0.3,7.5,3.8,8.9c0.5,0.9,1.3,3.1,0.8,4.2c-0.2,0.5-0.6,0.7-1.3,0.9c-0.2,0-0.7-0.1-1.3-0.1
		c-1.3,0-3.1,0.3-4.4,1.8l-0.3,0.3l0.1,0.4c0,0,1.4,3.9,1.2,6.9l-2.7,0.4l-1.4-0.2c0-0.2-0.1-0.3-0.1-0.4c0-1.6-0.8-4.4-0.9-4.8
		c-1.1-5.8-6.8-9.9-7.3-10.3c-2.2-1.9-1.9-6-1.9-6l0.1-0.8H8.5c-3,0-4.8-1.1-4.8-1.1l-0.1,0l-0.1,0c-2.3-0.8-2.1-2-2-2.2l0.1-0.4
		L6,2.5l7.7-1.8H17.8 M17.9,0h-4.3L5.7,1.8L0,5.1l0.8,0.1c0,0-0.5,2,2.5,3.1c0,0,2,1.3,5.2,1.3c0,0-0.4,4.5,2.2,6.7
		c0,0,5.9,4.1,7,9.9c0,0,0.9,3.1,0.9,4.7c0,0,0.1,0.4,0.2,1l2,0.3l3.3-0.5c0.4-3.2-1.2-7.8-1.2-7.8c1.1-1.3,2.7-1.6,3.8-1.6
		c0.7,0,1.3,0.1,1.3,0.1c4.3-0.7,1.1-6.5,1.1-6.5c-4-1.1-3.6-8.3-3.6-8.3c4.3-2.2,3.2-5.8,3.2-5.8c-0.5-0.7-1.4-1-2.4-1
		c-2,0-4.4,1-4.4,1L17.9,0L17.9,0z"/>
</g>
</svg>
