<?xml version="1.0" encoding="utf-8"?>
<!-- Generator: Adobe Illustrator 24.2.1, SVG Export Plug-In . SVG Version: 6.00 Build 0)  -->
<svg version="1.1" id="圖層_1" xmlns="http://www.w3.org/2000/svg" xmlns:xlink="http://www.w3.org/1999/xlink" x="0px" y="0px"
	 viewBox="0 0 100 91" style="enable-background:new 0 0 100 91;" xml:space="preserve">
<style type="text/css">
	.st0{fill:url(#SVGID_1_);}
	.st1{fill:#FFFFFF;}
</style>
<g>
	<linearGradient id="SVGID_1_" gradientUnits="userSpaceOnUse" x1="7.2653" y1="42.338" x2="235.0462" y2="57.3238">
		<stop  offset="0" style="stop-color:#976091"/>
		<stop  offset="1" style="stop-color:#EE8DAB"/>
	</linearGradient>
	<path class="st0" d="M33.5,88.7L28,86.1l-1,0.2c0.2-2.9-0.9-6.4-1.2-7.2c1-1,2.4-1.3,3.4-1.3c0.7,0,1.2,0.1,1.2,0.1l0.1,0l0.1,0
		c1.1-0.2,1.9-0.7,2.3-1.5c1-2.1-0.8-5.4-0.9-5.5l-0.1-0.1l-0.2,0c-3.3-0.9-3.4-6.5-3.3-7.7c4.3-2.3,3.2-6.1,3.2-6.1l0-0.1l0,0
		c-0.5-0.7-1.4-1.1-2.7-1.1c-1.8,0-3.8,0.7-4.4,0.9l-3.9-1.8H16L8,56.6l-5.6,3.3l-1.8-0.3c1.4-7.3,3.8-8.4,4.1-8.5
		c0.4,0,0.8,0.1,1.1,0.1c2.7,0,4.7-1,4.8-1l-0.2-0.7c-0.9,0-1.7-0.3-2.2-0.9c-1.3-1.4-1-4.1-1-4.1l0.1-0.7l-0.6,0.4
		c-0.7,0.4-1.3,0.7-1.8,0.7c-0.3,0-0.4-0.1-0.6-0.2c-0.4-0.6-0.3-1.9-0.2-2.4c0.7-1.7,1.9-1.9,2.4-1.9c0.1,0,0.2,0,0.2,0l1.4,0.2
		L7,39.6c-0.8-0.7-0.8-2.1-0.8-2.5l0.6-1c1-1,1-5.5,1-7l1.9-0.6l-0.1-0.3c-1.2-4.7,2-5.8,2.1-5.9c1.6-0.3,1.8-2.3,1.7-3.3l0-0.3
		h-0.3c-1.6,0-2.2-0.4-2.4-0.7c-0.2-0.2-0.1-0.5-0.1-0.7c1.5,0,2.7-1.4,3.2-2.1l2.8,1.3l4.3,2.2c0.1,0.1,2.5,0.8,4.8,0.8
		c0.4,0,0.8,0,1.2-0.1l0.1,0l0.1-0.1c0.2-0.2,3.7-4.4,4-6.7l4.2-0.3l6.2-6.9l3.5-1.5l-0.4-1.4C46,2,51.2,0.4,54,0.4
		c0.2,0,0.4,0,0.6,0L65.8,0C69,0.7,72.6,2,72.6,2.9V3l0,0.1c0.1,0.3,2.9,6.2,4.4,7.7l0.1,0.1l0.2,0c0,0,0.2,0,0.5,0
		c0.5,0,1.3,0.1,1.7,0.7c0.4,0.5,0.5,1.4,0.3,2.6c-0.7,0.2-2.2,0.8-2.2,3.9v0.1l0,0.1c0,0,0.3,1-0.4,3l0,0.1l2.2,4.7
		c-0.3,0.7-1.2,3.2,0.5,5.3l0.1,0.1l3.7,1.5c0.1,0,0.5,0.1,1.1,0.1c2.5,0,4-1.1,4.1-3.1c0.3-0.2,1-0.7,1.7-0.7c0.6,0,1.1,0.3,1.5,1
		c0.1,0.1,1.6,1.9,3.6,1.9c1.1,0,2.1-0.5,3-1.5l0.1,0.8l-2.6,3.8l2.1,1.7L91,42.7l0,0.1c-1.7,5.4-7.9,15-8.5,16
		c-3,1.5-4.7,3-5.2,4.6c-0.1,0.5-0.1,0.8-0.1,1.1c-4.3,0.6-10.6,8.2-11.3,9.1l-2.3,1.2l0,0.3c0.6,3.8-3.1,8.5-3.8,9.3L57,84.7
		l-3.7,2.2l-2.9,2.8l-5.5,0.3l-5.1-1.8l-3.2,2.1L33.5,88.7z"/>
	<path class="st1" d="M65.7,0.4c3.3,0.7,6.4,1.8,6.5,2.5v0.2l0.1,0.2c0.3,0.6,3,6.3,4.5,7.8l0.3,0.3l0.4-0.1c0,0,0.2,0,0.4,0
		c0.5,0,1.1,0.1,1.4,0.5c0.3,0.4,0.4,1.1,0.3,2.1c-0.3,0.1-0.6,0.2-0.9,0.5c-0.9,0.7-1.4,2-1.4,3.7l0,0.1l0,0.1c0,0,0.3,0.9-0.4,2.8
		l-0.1,0.3l0.1,0.3l2,4.4c-0.4,0.9-1.1,3.5,0.6,5.5l0.1,0.1l0.2,0.1l3.6,1.4l0.1,0l0.1,0c0,0,0.4,0.1,1,0.1c2.7,0,4.3-1.2,4.5-3.3
		c0.3-0.2,0.9-0.5,1.4-0.5c0.3,0,0.8,0.1,1.2,0.8l0,0.1l0,0.1c0.1,0.1,1.7,2,3.9,2c0.9,0,1.8-0.3,2.6-0.9l-2.2,3.1l-0.4,0.6l0.5,0.4
		l1.5,1.2l-6.9,5.6l-0.2,0.1l-0.1,0.2c-1.6,5.2-7.6,14.5-8.5,15.9c-3,1.5-4.8,3.1-5.3,4.8c-0.1,0.3-0.1,0.6-0.1,0.9
		c-1.9,0.4-4.2,1.9-7,4.6c-2.1,2-3.7,3.9-4.1,4.4l-2,1l-0.5,0.2l0.1,0.5c0.6,3.5-2.8,7.9-3.6,8.9L57,84.3l-0.2,0l-0.1,0.1l-3.6,2.2
		l-0.1,0L53,86.7l-2.7,2.7L45,89.7L40.1,88l-0.4-0.1l-0.3,0.2L36.5,90l-2.8-1.6l0,0l0,0l-5.4-2.5L28,85.7l-0.2,0l-0.4,0.1
		c0.1-2.6-0.8-5.6-1.1-6.7c0.9-0.8,2.1-1,2.9-1c0.6,0,1.1,0.1,1.1,0.1l0.1,0l0.1,0c1.5-0.3,2.2-1.1,2.5-1.7c1.1-2.2-0.7-5.5-0.9-5.9
		L32,70.4l-0.3-0.1c-2.6-0.7-3.1-5-3.1-7.1c2.2-1.2,3-2.8,3.2-4c0.3-1.3,0-2.3,0-2.5l0-0.1l-0.1-0.1c-0.6-0.9-1.6-1.3-3-1.3
		c-1.7,0-3.7,0.6-4.4,0.9l-3.7-1.7l-0.1-0.1h-0.2H16H16l-0.1,0l-7.9,1.8l-0.1,0l-0.1,0.1l-5.5,3.2L1,59.3c1.3-6.4,3.3-7.6,3.7-7.8
		c0.4,0,0.7,0.1,1.1,0.1c2.8,0,4.8-1,4.9-1L10.4,49c-0.8,0-1.4-0.2-1.9-0.8c-1.2-1.3-0.9-3.8-0.9-3.8L7.7,43l-1.3,0.8
		c-0.9,0.5-1.4,0.6-1.6,0.6c-0.2,0-0.2-0.1-0.3-0.1c-0.3-0.4-0.2-1.4-0.1-2c0.6-1.4,1.6-1.7,2.1-1.7c0.1,0,0.1,0,0.1,0l2.8,0.5
		l-2.2-1.8c-0.6-0.5-0.7-1.5-0.6-2.1l0.6-0.8c1-1.1,1.1-4.9,1.1-7l1.3-0.4l0.7-0.2L10,28.2c-1-4.1,1.5-5.3,1.8-5.4
		c1.9-0.4,2.1-2.6,2-3.7l-0.1-0.6h-0.7c-1.6,0-2-0.4-2-0.5c0,0,0-0.1-0.1-0.2c1.3-0.2,2.4-1.2,3-2l2.5,1.2l4.3,2.2l0,0l0.1,0
		c0.1,0,2.5,0.8,4.9,0.8c0.4,0,0.8,0,1.2-0.1l0.3,0l0.2-0.2c0.4-0.5,3.5-4.2,4.1-6.6l3.7-0.3l0.3,0l0.2-0.2l6-6.7l3.1-1.4l0.6-0.3
		l-0.2-0.6L45,2.7c1.7-0.5,6.4-1.9,8.9-1.9c0.2,0,0.4,0,0.5,0l0.1,0l0.1,0L65.7,0.4 M65.8-0.3L54.6,0c-0.2,0-0.4,0-0.6,0
		c-3.2,0-9.8,2.2-9.8,2.2l0.4,1.4l-3.2,1.4l-6.1,6.8l-4.3,0.4c0,2.2-4,6.8-4,6.8c-0.4,0.1-0.7,0.1-1.1,0.1c-2.3,0-4.7-0.8-4.7-0.8
		l-4.3-2.2l-3.1-1.4c-0.3,0.5-1.5,2.2-3.1,2.2c-0.1,0-0.1,0-0.2,0c0,0-1.1,2.2,2.7,2.2c0,0,0.4,2.5-1.4,2.9c0,0-3.6,1.3-2.3,6.3
		l-1.8,0.5c0,0,0.2,6.1-0.9,7L5.9,37c0,0-0.2,2,0.9,2.9c0,0-0.1,0-0.3,0c-0.6,0-2,0.2-2.8,2.2c0,0-0.7,3.1,1.1,3.1
		c0.5,0,1.1-0.2,2-0.7c0,0-0.5,5.4,3.6,5.4c0,0-1.9,1-4.6,1c-0.4,0-0.8,0-1.2-0.1c0,0-2.9,0.5-4.5,9.2l2.3,0.4L8.1,57l7.9-1.8h4.3
		l4,1.8c0,0,2.4-1,4.4-1c1,0,1.9,0.2,2.4,1c0,0,1.1,3.6-3.2,5.8c0,0-0.4,7.2,3.6,8.3c0,0,3.2,5.8-1.1,6.5c0,0-0.5-0.1-1.3-0.1
		c-1.1,0-2.7,0.3-3.8,1.6c0,0,1.6,4.5,1.2,7.8l1.4-0.2l5.4,2.5l3.2,1.8l3.2-2.2l5,1.8l5.8-0.4l2.9-2.9l3.6-2.2l2.9-0.4
		c0,0,4.7-5.4,4-9.7l2.2-1.1c0,0,7.2-9,11.5-9c0,0-1.4-2.5,5-5.8c0,0,6.8-10.4,8.6-16.2l7.6-6.1L96.8,35l2.5-3.6L99,29.7
		c-1.1,1.5-2.2,2-3.2,2c-1.9,0-3.3-1.7-3.3-1.7c-0.5-0.9-1.2-1.2-1.9-1.2c-1.1,0-2.1,0.9-2.1,0.9c0,2.6-2.4,2.9-3.8,2.9
		c-0.5,0-0.9-0.1-0.9-0.1L80.2,31c-1.8-2.2-0.4-5-0.4-5l-2.2-4.7c0.7-2.2,0.4-3.2,0.4-3.2c0-3.6,2.2-3.6,2.2-3.6
		c0.8-3.6-1.3-4-2.3-4c-0.3,0-0.5,0-0.5,0C75.9,9,73,2.9,73,2.9C73,1.1,65.8-0.3,65.8-0.3L65.8-0.3z"/>
</g>
</svg>
